,
.   http://www.scenetime.com/signup.php  ---&gt;  Hottest scene tracker on the net !!!  

    Join Now   http://www.scenetime.com/signup.php

    seed back for speed


 



...................................NFO:.................................................[pre]
oooooo     oooo  o8o   .oooooo..o ooooo     ooo       .o.       ooooo         o8o   .oooooo..o oooooooooooo
`888.     .8'   `"'  d8P'    `Y8 `888'     `8'      .888.      `888'         `"'  d8P'    `Y8 `888'     `8
 `888.   .8'   oooo  Y88bo.       888       8      .8"888.      888         oooo  Y88bo.       888        
  `888. .8'    `888   `"Y8888o.   888       8     .8' `888.     888         `888   `"Y8888o.   888oooo8    
   `888.8'      888       `"Y88b  888       8    .88ooo8888.    888          888       `"Y88b  888    "    
    `888'       888  oo     .d8P  `88.    .8'   .8'     `888.   888       o  888  oo     .d8P  888       o
     `8'       o888o 8""88888P'     `YbodP'    o88o     o8888o o888ooooood8 o888o 8""88888P'  o888ooooood8




Title: Rufus Hound - Being Rude 2011 DVDRiP XviD - VISUALiSE
Format: Xvid
Language: English
Subtitles: No
Imdb: 

Plot:
TV s Rufus Hound is a comedian presenter actor and the owner 
of a very fine moustache. You already know him as the star of 
Celebrity Juice, Let s Dance For Comic Relief (dressed as Cheryl Cole), 
Argumental, and of his own CBBC sitcom, Hounded. Now, in this brilliant 
debut DVD, Rufus goes back to his stand-up roots in a stunning live show, 
recorded at London s legendary 100 Club.

Sources:
Video: Whoever - Many Thanks :D ;)
Audio: Whoever - Many Thanks :D :P

Release Notes:
VISUALiSE Bringing you 
Rufus Hound - Being Rude 2011 DVDRiP XviD - VISUALiSE

Thanks to Whoever for this :P :P
did our normal ran some fitlers and xtra tweaks to the 
video then muxed audio back to our encode :D :D

enjoy. :P

Info:

Video
ID                               : 0
Format                           : MPEG-4 Visual
Format profile                   : Advanced Simple@L5
Format settings, BVOP            : 2
Format settings, QPel            : No
Format settings, GMC             : No warppoints
Format settings, Matrix          : Default (H.263)
Codec ID                         : XVID
Codec ID/Hint                    : XviD
Duration                         : 1h 10mn
Bit rate                         : 1 498 Kbps
Width                            : 716 pixels
Height                           : 336 pixels
Display aspect ratio             : 2.526
Frame rate                       : 25.000 fps
Color space                      : YUV
Chroma subsampling               : 4:2:0
Bit depth                        : 8 bits
Scan type                        : Progressive
Compression mode                 : Lossy
Bits/(Pixel*Frame)               : 0.249
Stream size                      : 754 MiB (92%)

Audio
ID                               : 1
Format                           : AC-3
Format/Info                      : Audio Coding 3
Mode extension                   : CM (complete main)
Codec ID                         : 2000
Duration                         : 1h 10mn
Bit rate mode                    : Constant
Bit rate                         : 128 Kbps
Channel(s)                       : 2 channels
Channel positions                : Front: L R
Sampling rate                    : 48.0 KHz
Bit depth                        : 16 bits
Compression mode                 : Lossy
Stream size                      : 64.4 MiB (8%)
Alignment                        : Aligned on interleaves
Interleave, duration             : 32 ms (0.80 video frame)


Screens:
[IMG]http://i.imgur.com/P6GsU.png[/IMG]
[IMG]http://i.imgur.com/cDSVM.png[/IMG]
[IMG]http://i.imgur.com/9agn6.png[/IMG]
[IMG]http://i.imgur.com/H1nEe.png[/IMG]

Greetz
The Select Few .... YOU Know Who YOU Are ;)
The Rest Of YOU ....................SUCK :P
[/pre]